<?xml version="1.0" standalone="no"?>
<!DOCTYPE svg PUBLIC "-//W3C//DTD SVG 20010904//EN"
 "http://www.w3.org/TR/2001/REC-SVG-20010904/DTD/svg10.dtd">
<svg version="1.0" xmlns="http://www.w3.org/2000/svg"
 width="200.000000pt" height="200.000000pt" viewBox="0 0 200.000000 200.000000"
 preserveAspectRatio="xMidYMid meet">

<g transform="translate(0.000000,200.000000) scale(0.100000,-0.100000)"
fill="#FFFFFF" stroke="none">
<path d="M757 1973 c-4 -3 -7 -16 -7 -29 0 -52 -58 -93 -155 -109 -54 -9 -104
-37 -151 -83 -37 -38 -42 -39 -119 -45 -44 -3 -96 -10 -115 -16 -60 -18 -143
-74 -177 -119 l-33 -44 0 -408 c0 -232 4 -411 9 -414 14 -9 133 31 173 59 20
14 41 25 46 25 5 0 12 -23 16 -52 4 -28 23 -96 42 -152 86 -248 105 -312 126
-433 l23 -128 285 -5 c157 -3 412 -4 566 -2 l282 3 17 97 c25 141 51 242 94
356 48 128 67 187 81 258 l11 56 77 -38 c70 -35 102 -44 140 -41 10 1 12 86
10 424 l-3 424 -29 37 c-49 65 -190 116 -322 116 -33 0 -46 6 -75 36 -51 53
-108 83 -189 98 -84 16 -118 42 -126 98 l-7 38 -242 0 c-133 0 -245 -3 -248
-7z m467 -73 c22 -51 74 -86 141 -95 72 -10 128 -38 177 -88 43 -43 44 -44
128 -50 143 -11 232 -47 270 -109 19 -31 20 -51 20 -421 l0 -388 -22 7 c-37
11 -100 44 -145 77 l-43 30 -48 -45 c-40 -38 -90 -64 -159 -84 -7 -2 -13 -12
-13 -22 0 -41 -32 -124 -65 -167 -40 -52 -44 -68 -13 -63 29 4 85 89 105 157
15 56 15 56 90 92 l75 36 -6 -39 c-6 -38 -27 -104 -100 -313 -19 -55 -45 -152
-56 -215 -12 -63 -24 -121 -26 -127 -2 -10 -63 -13 -259 -13 l-255 0 0 86 c0
76 -2 85 -17 82 -15 -3 -18 -16 -21 -86 l-3 -82 -253 0 -254 0 -22 121 c-12
66 -42 178 -67 247 -48 138 -87 259 -97 308 l-7 30 75 -35 c74 -36 74 -36 89
-92 20 -68 76 -153 105 -157 31 -5 27 11 -13 63 -33 43 -65 126 -65 167 0 10
-6 20 -12 22 -70 20 -120 46 -160 84 l-48 45 -43 -30 c-45 -33 -108 -66 -144
-77 l-23 -7 0 386 0 386 48 48 c63 63 137 91 255 99 82 4 89 7 107 32 35 49
105 87 181 100 81 14 130 48 151 106 l12 34 206 0 206 0 18 -40z"/>
<path d="M847 1363 c-4 -3 -7 -25 -7 -48 0 -95 -56 -187 -140 -230 -56 -28
-65 -39 -47 -53 17 -14 92 23 137 68 51 51 82 122 88 203 4 54 2 67 -10 67 -8
0 -18 -3 -21 -7z"/>
<path d="M1114 1356 c-15 -39 33 -177 82 -235 33 -40 110 -91 136 -91 28 0 21
28 -12 45 -42 22 -96 71 -120 110 -11 18 -29 66 -39 106 -18 72 -35 96 -47 65z"/>
<path d="M987 964 c-4 -4 -7 -115 -7 -246 0 -232 1 -238 20 -238 20 0 20 5 18
242 -3 228 -8 265 -31 242z"/>
</g>
</svg>
