<?xml version="1.0" standalone="no"?>
<!DOCTYPE svg PUBLIC "-//W3C//DTD SVG 20010904//EN"
 "http://www.w3.org/TR/2001/REC-SVG-20010904/DTD/svg10.dtd">
<svg version="1.0" xmlns="http://www.w3.org/2000/svg"
 width="512.000000pt" height="512.000000pt" viewBox="0 0 512.000000 512.000000"
 preserveAspectRatio="xMidYMid meet">

<g transform="translate(0.000000,512.000000) scale(0.100000,-0.100000)"
fill="#FFFFFF" stroke="none">
<path d="M2133 4755 c-29 -8 -264 -131 -538 -281 -525 -289 -555 -310 -608
-417 -36 -73 -667 -2638 -667 -2711 0 -73 24 -137 73 -192 38 -43 122 -94 156
-94 7 0 43 -22 80 -49 179 -132 441 -289 630 -379 590 -278 1168 -365 1709
-256 129 26 282 71 370 110 l52 23 68 -26 c235 -89 525 -156 791 -183 57 -5
193 -10 303 -10 198 0 199 0 223 25 l25 24 0 1045 0 1044 -52 47 c-76 68 -260
188 -358 233 -462 214 -919 138 -1272 -209 l-87 -86 -43 35 c-75 59 -170 110
-268 143 -84 29 -111 33 -235 37 -104 3 -162 0 -228 -12 -101 -19 -249 -67
-320 -103 -27 -13 -51 -22 -54 -20 -3 4 -163 1005 -163 1023 0 2 15 4 34 4 52
0 157 36 201 69 l39 29 38 -68 c41 -74 76 -98 119 -81 22 8 542 487 647 596
68 70 68 69 -139 331 -99 126 -196 246 -216 267 -46 49 -105 82 -171 96 -65
13 -74 13 -139 -4z m158 -171 c15 -7 102 -109 194 -225 l167 -211 -48 -50
c-27 -26 -54 -47 -60 -46 -12 3 -174 196 -174 207 0 3 7 27 15 54 16 52 12 70
-18 105 -47 52 -115 15 -141 -76 -34 -123 -27 -141 114 -306 44 -52 80 -98 80
-103 0 -9 -93 -93 -103 -93 -4 0 -113 128 -155 182 -11 14 -10 23 7 57 12 22
21 55 21 72 0 69 -82 105 -128 57 -32 -35 -72 -129 -72 -170 0 -57 11 -77 113
-199 l95 -114 -24 -24 c-13 -14 -26 -23 -29 -20 -2 3 -22 36 -43 75 -44 81
-76 103 -123 84 -16 -7 -38 -26 -48 -44 -61 -98 -162 -137 -272 -104 -46 13
-79 2 -104 -35 -15 -23 -10 -64 84 -663 117 -751 124 -795 119 -798 -2 -2 -46
-29 -98 -61 -120 -72 -140 -91 -140 -127 0 -42 15 -64 50 -77 38 -13 42 -11
165 62 172 103 191 129 181 253 l-6 81 88 40 c101 47 191 77 280 94 88 17 300
6 377 -19 224 -72 406 -245 530 -504 44 -91 60 -108 102 -108 37 0 69 26 79
64 8 33 -64 177 -152 303 -35 51 -64 97 -64 102 0 15 174 175 232 214 159 105
303 149 493 151 250 2 446 -69 693 -252 l72 -54 0 -819 c0 -694 -2 -819 -14
-819 -8 0 -60 5 -117 10 -205 21 -432 85 -627 176 -52 24 -103 44 -112 44 -10
0 -29 -9 -44 -21 -20 -16 -26 -29 -26 -59 0 -50 29 -73 166 -133 207 -92 420
-147 648 -168 l126 -12 0 -54 0 -53 -129 0 c-310 0 -631 58 -969 175 l-160 56
-97 -42 c-120 -51 -320 -102 -483 -123 -143 -18 -408 -21 -550 -5 -511 56
-1010 260 -1516 621 -60 43 -117 78 -125 78 -9 0 -35 9 -58 19 -47 22 -73 62
-73 115 0 53 627 2594 653 2645 12 24 38 56 57 72 48 38 948 530 985 539 36 8
80 2 116 -16z"/>
<path d="M3706 2465 c-134 -37 -268 -139 -334 -255 -37 -65 -39 -88 -11 -124
16 -20 29 -26 58 -26 41 0 61 16 99 81 60 100 179 170 303 177 98 6 162 -10
243 -59 75 -45 107 -49 141 -14 36 35 33 75 -7 114 -39 38 -133 86 -208 106
-68 18 -218 18 -284 0z"/>
<path d="M1386 1119 c-20 -16 -26 -29 -26 -59 0 -44 27 -73 150 -153 456 -299
1045 -344 1612 -125 43 16 85 39 93 51 25 35 19 82 -12 107 -35 27 -55 24
-198 -28 -300 -109 -613 -135 -904 -76 -191 39 -407 133 -564 245 -45 32 -92
59 -103 59 -12 0 -33 -9 -48 -21z"/>
</g>
</svg>
