<?xml version="1.0" standalone="no"?>
<!DOCTYPE svg PUBLIC "-//W3C//DTD SVG 20010904//EN"
 "http://www.w3.org/TR/2001/REC-SVG-20010904/DTD/svg10.dtd">
<svg version="1.0" xmlns="http://www.w3.org/2000/svg"
 width="512.000000pt" height="512.000000pt" viewBox="0 0 512.000000 512.000000"
 preserveAspectRatio="xMidYMid meet">

<g transform="translate(0.000000,512.000000) scale(0.100000,-0.100000)"
fill="#FFFFFF" stroke="none">
<path d="M1718 4423 l-187 -187 -53 13 c-210 49 -418 26 -603 -66 -305 -153
-495 -454 -495 -789 0 -67 -1 -71 -36 -105 -180 -173 -300 -456 -333 -788 -23
-224 -9 -291 60 -291 69 0 89 38 89 168 0 107 24 268 56 380 52 180 134 318
260 438 l64 61 0 124 c0 95 5 142 21 199 108 392 514 621 906 510 40 -11 83
-20 95 -20 17 0 83 60 235 213 116 116 214 222 218 234 12 43 -30 92 -79 93
-25 0 -58 -28 -218 -187z"/>
<path d="M3139 4597 c-25 -19 -41 -56 -34 -80 4 -12 102 -118 218 -234 152
-153 218 -213 235 -213 12 0 55 9 95 20 269 76 548 -3 740 -210 128 -138 187
-297 187 -503 l0 -120 64 -61 c126 -120 208 -258 260 -438 32 -112 56 -273 56
-380 0 -130 20 -168 89 -168 47 0 71 39 71 115 0 97 -18 260 -41 369 -50 238
-141 422 -290 581 l-46 50 -6 110 c-17 326 -198 601 -492 748 -185 92 -393
115 -603 66 l-53 -13 -187 187 c-160 159 -193 187 -218 187 -16 0 -36 -6 -45
-13z"/>
<path d="M1966 3657 c-29 -29 -34 -71 -12 -100 8 -10 51 -31 95 -47 159 -56
282 -143 402 -285 66 -79 74 -85 109 -85 35 0 43 6 104 78 126 152 283 261
433 301 81 22 108 87 57 138 -22 22 -31 24 -66 19 -127 -20 -324 -133 -451
-259 l-77 -76 -75 74 c-128 127 -326 241 -453 261 -35 5 -44 3 -66 -19z"/>
<path d="M1112 2648 c-17 -19 -23 -44 -32 -143 -27 -295 -156 -506 -418 -683
-31 -22 -77 -49 -102 -62 -66 -33 -90 -58 -90 -96 0 -43 28 -75 65 -76 64 -2
277 134 400 256 119 119 197 242 250 396 l23 65 25 -55 c35 -79 113 -305 152
-445 98 -349 149 -682 162 -1065 6 -185 7 -195 29 -217 24 -24 63 -30 93 -13
39 21 43 56 32 282 -28 550 -132 1040 -319 1505 l-21 51 94 -44 c52 -25 138
-56 192 -70 89 -23 112 -25 243 -21 151 5 207 17 342 73 75 31 194 102 268
159 l59 45 86 -63 c101 -75 236 -144 355 -182 72 -24 107 -28 230 -32 131 -4
154 -2 243 21 54 14 140 45 192 70 l94 44 -21 -51 c-154 -378 -264 -837 -302
-1262 -25 -281 -30 -459 -12 -493 25 -48 81 -57 120 -19 22 22 23 32 29 217
13 380 64 715 162 1065 39 140 117 366 152 445 l25 55 10 -30 c59 -176 141
-310 262 -430 124 -123 336 -259 401 -257 37 1 65 33 65 76 0 40 -19 58 -123
116 -296 167 -458 407 -487 725 -9 99 -15 124 -32 143 -35 37 -69 29 -150 -36
-101 -81 -150 -113 -245 -160 -312 -157 -620 -108 -939 148 -59 47 -96 70
-114 70 -18 0 -55 -23 -114 -70 -318 -256 -627 -305 -938 -150 -92 46 -144 81
-246 162 -81 65 -115 73 -150 36z"/>
<path d="M2213 1675 c-79 -17 -99 -28 -111 -63 -14 -40 8 -89 44 -98 15 -4 49
-2 76 5 111 25 200 6 275 -59 44 -39 82 -39 126 0 75 66 158 83 278 58 70 -14
102 -3 117 39 17 51 -7 89 -69 107 -125 38 -246 27 -346 -29 l-43 -24 -43 24
c-52 30 -148 55 -202 54 -22 0 -68 -7 -102 -14z"/>
<path d="M2260 974 c-62 -21 -94 -58 -86 -98 9 -46 42 -69 86 -61 19 4 63 8
97 9 56 1 65 -2 100 -32 21 -18 53 -40 71 -49 30 -16 34 -16 65 0 17 9 49 31
70 49 35 30 44 33 100 32 34 -1 78 -5 97 -9 44 -8 77 15 86 60 8 44 -23 78
-91 100 -77 24 -147 17 -229 -24 l-66 -32 -67 32 c-79 40 -163 48 -233 23z"/>
</g>
</svg>
