<?xml version="1.0" standalone="no"?>
<!DOCTYPE svg PUBLIC "-//W3C//DTD SVG 20010904//EN"
 "http://www.w3.org/TR/2001/REC-SVG-20010904/DTD/svg10.dtd">
<svg version="1.0" xmlns="http://www.w3.org/2000/svg"
 width="512.000000pt" height="512.000000pt" viewBox="0 0 512.000000 512.000000"
 preserveAspectRatio="xMidYMid meet">

<g transform="translate(0.000000,512.000000) scale(0.100000,-0.100000)"
fill="#FFFFFF" stroke="none">
<path d="M3295 4733 c-89 -8 -257 -35 -365 -59 -173 -39 -339 -96 -612 -211
-136 -57 -276 -112 -311 -123 -170 -52 -301 -196 -342 -372 -29 -129 -41
-1282 -16 -1643 25 -372 58 -671 106 -963 42 -255 34 -294 -83 -403 -152 -142
-365 -249 -605 -304 -38 -8 -77 -20 -88 -26 -34 -18 -59 -70 -59 -123 0 -43 4
-53 39 -87 l39 -39 498 0 499 0 44 25 c54 31 88 31 142 0 36 -20 58 -25 116
-25 103 0 173 28 244 99 151 152 129 378 -59 599 l-45 54 6 166 c9 219 32 460
62 649 24 149 26 154 72 220 94 137 180 354 214 543 9 47 14 141 13 250 -1
293 -55 488 -163 601 -26 27 -55 49 -64 49 -20 0 -57 -34 -57 -53 0 -8 22 -41
49 -75 92 -114 126 -255 126 -527 0 -137 -4 -200 -18 -265 -38 -175 -109 -346
-196 -473 -50 -72 -51 -76 -75 -218 -33 -193 -54 -406 -68 -681 l-12 -227 47
-50 c105 -112 175 -261 163 -347 -16 -122 -111 -207 -231 -208 -48 -1 -67 4
-94 23 -24 17 -52 26 -90 29 -48 3 -65 -1 -113 -27 l-58 -31 -454 0 c-389 0
-455 2 -466 15 -22 27 -3 42 77 60 165 37 352 117 493 210 109 72 225 187 256
252 40 85 41 141 5 358 -96 589 -127 1069 -116 1765 4 256 7 515 6 576 -3 199
32 323 118 417 43 47 133 100 189 112 18 4 149 55 290 115 471 197 711 257
1112 276 80 3 151 11 158 17 15 12 16 59 0 75 -11 11 -216 15 -323 5z"/>
<path d="M3659 4109 c-11 -11 -19 -27 -19 -37 0 -37 30 -49 141 -56 117 -8
139 0 139 49 0 39 -34 52 -144 58 -87 4 -101 2 -117 -14z"/>
<path d="M3350 4113 c-267 -42 -506 -134 -662 -256 -40 -30 -51 -70 -26 -95
21 -21 50 -13 131 39 94 60 192 108 301 144 87 29 246 65 291 65 44 0 75 25
75 60 0 44 -31 56 -110 43z"/>
<path d="M4100 3570 c-64 -35 -275 -99 -411 -124 -164 -30 -299 -43 -536 -52
-162 -6 -184 -9 -200 -26 -16 -18 -16 -22 -2 -46 l15 -27 219 1 c315 1 550 34
800 114 124 40 190 73 211 105 15 23 15 27 0 50 -20 30 -48 31 -96 5z"/>
<path d="M2054 3069 c-17 -19 -19 -37 -18 -173 1 -128 5 -166 27 -250 48 -182
157 -366 215 -366 62 0 68 48 16 117 -50 65 -89 147 -120 250 -24 78 -27 107
-30 252 -2 145 -4 167 -20 178 -26 19 -48 16 -70 -8z"/>
</g>
</svg>
