<?xml version="1.0" standalone="no"?>
<!DOCTYPE svg PUBLIC "-//W3C//DTD SVG 20010904//EN"
 "http://www.w3.org/TR/2001/REC-SVG-20010904/DTD/svg10.dtd">
<svg version="1.0" xmlns="http://www.w3.org/2000/svg"
 width="512.000000pt" height="512.000000pt" viewBox="0 0 512.000000 512.000000"
 preserveAspectRatio="xMidYMid meet">

<g transform="translate(0.000000,512.000000) scale(0.100000,-0.100000)"
fill="#FFFFFF" stroke="none">
<path d="M1355 4538 c-230 -321 -423 -589 -428 -595 -7 -10 -106 -624 -107
-665 0 -7 139 -33 144 -27 2 2 24 143 50 313 25 170 50 314 55 320 4 6 173
242 376 524 202 281 372 512 377 512 19 0 538 -271 538 -281 0 -14 -69 -149
-76 -149 -3 0 -83 41 -177 90 -94 50 -173 87 -177 83 -4 -4 -21 -34 -38 -65
l-32 -57 175 -91 c96 -50 177 -95 180 -100 6 -10 -65 -160 -76 -160 -4 0 -84
41 -179 91 -94 50 -173 89 -175 87 -20 -23 -66 -121 -59 -128 7 -7 94 -54 333
-180 22 -12 -97 -131 -168 -169 -97 -51 -154 -61 -363 -61 l-188 0 0 -75 0
-75 129 0 128 0 157 -789 c86 -434 156 -808 156 -833 0 -24 -7 -70 -15 -101
-33 -127 -103 -219 -201 -264 -59 -27 -58 -20 -29 -116 15 -50 27 -51 113 -10
80 39 170 133 214 224 37 77 68 183 68 236 0 76 158 218 333 298 172 78 321
114 510 122 l137 6 0 58 c0 31 3 65 7 75 6 16 -4 16 -138 12 -319 -12 -616
-118 -825 -294 -50 -42 -52 -43 -57 -21 -16 68 -277 1400 -275 1402 2 1 28 8
58 14 145 31 295 141 397 291 39 58 354 711 347 721 -2 4 -107 60 -232 124
-125 65 -300 155 -388 202 l-162 83 -417 -582z"/>
<path d="M795 3108 c-2 -7 -22 -135 -44 -284 -90 -605 -76 -892 72 -1473 l62
-245 83 -57 82 -57 -467 -274 c-259 -152 -483 -289 -504 -310 -47 -46 -74
-129 -65 -196 22 -158 201 -255 341 -184 17 8 175 100 353 204 178 105 328
188 335 185 7 -3 52 -35 101 -70 l90 -64 80 47 c45 26 171 100 281 165 110 64
216 129 237 144 l36 27 134 -23 c164 -27 428 -47 517 -38 176 18 348 72 553
172 81 39 182 94 226 122 43 28 83 51 89 51 5 0 113 -213 238 -472 126 -260
230 -474 231 -476 2 -3 123 55 132 63 1 1 -104 221 -233 489 -130 268 -233
491 -229 497 3 6 33 31 66 55 72 53 124 59 177 22 17 -13 123 -128 237 -256
l205 -233 37 29 c88 70 102 39 -148 322 -253 285 -273 301 -384 308 -94 6
-124 -7 -291 -129 -287 -210 -522 -328 -773 -391 -72 -19 -113 -22 -242 -21
-133 1 -356 22 -412 39 -16 5 -16 10 7 55 60 117 71 306 26 433 -23 66 -109
218 -119 212 -4 -2 -166 -96 -360 -210 l-353 -207 -74 45 c-40 26 -82 54 -93
64 -23 20 -132 447 -157 617 -48 321 -42 561 25 1004 22 145 40 269 40 276 0
13 -15 18 -97 30 -32 5 -44 3 -48 -7z m1090 -1860 c27 -65 31 -186 10 -264
-22 -82 -82 -173 -143 -217 -26 -19 -152 -96 -279 -171 l-232 -136 -88 63
c-49 35 -94 66 -100 70 -8 5 -162 -80 -387 -212 -206 -121 -385 -223 -399
-226 -55 -14 -117 52 -103 110 9 37 27 50 253 182 114 67 484 284 822 482 338
199 618 361 622 361 4 0 15 -19 24 -42z"/>
<path d="M4783 2909 l-223 -201 -72 17 c-165 37 -326 29 -488 -25 -140 -46
-281 -136 -359 -228 l-38 -44 -42 26 c-60 38 -144 74 -240 102 -119 34 -115
35 -130 -42 -7 -37 -8 -70 -4 -74 4 -4 40 -15 78 -24 91 -23 217 -82 280 -133
28 -22 96 -84 153 -137 117 -110 106 -109 175 -22 29 36 30 39 13 52 -10 7
-52 45 -92 85 l-74 72 24 32 c14 18 54 54 88 80 201 152 453 193 696 114 l63
-21 52 45 c145 126 451 403 454 413 2 7 -18 34 -44 62 l-48 51 -222 -200z"/>
<path d="M2200 1205 l0 -75 75 0 75 0 0 75 0 75 -75 0 -75 0 0 -75z"/>
<path d="M2500 1205 l0 -75 75 0 75 0 0 75 0 75 -75 0 -75 0 0 -75z"/>
<path d="M2800 1205 l0 -75 75 0 75 0 0 75 0 75 -75 0 -75 0 0 -75z"/>
<path d="M3100 1205 l0 -75 70 0 70 0 0 75 0 75 -70 0 -70 0 0 -75z"/>
</g>
</svg>
